<svg width="166" height="71" viewBox="0 0 166 71" fill="none" xmlns="http://www.w3.org/2000/svg">
<path d="M32.3565 55.0276C32.3565 47.3997 28.2537 41.7943 21.0303 40.523L21.0303 47.5153C24.382 48.671 26.1733 51.387 26.1733 55.0276C26.1733 59.4772 22.475 63.2911 16.3496 63.2911C10.282 63.2911 6.58359 59.4772 6.58359 55.0276C6.58359 51.6759 8.20162 48.671 11.611 47.5153V40.523C4.3299 41.7366 0.400392 47.7464 0.400392 55.0276C0.400392 63.4645 6.69916 70.1678 16.3496 70.1678C26.5201 70.1678 32.3565 63.4645 32.3565 55.0276Z" fill="black"/>
<path d="M32.3565 21.6881C32.3565 13.0778 26.5201 6.20115 16.3496 6.20115C6.23687 6.20115 0.40039 13.0778 0.400391 21.6881C0.400391 30.2983 6.23687 37.175 16.3496 37.175C26.5201 37.175 32.3565 30.3561 32.3565 21.6881ZM16.3496 30.2983C9.64629 30.2983 6.46801 26.2533 6.46801 21.6881C6.46801 17.1807 9.64629 13.0778 16.3496 13.0778C23.0528 13.0778 26.2311 17.1807 26.2311 21.6881C26.2311 26.2533 23.0528 30.2983 16.3496 30.2983Z" fill="black"/>
</svg>
