<?xml version="1.0" encoding="utf-8"?>
<!-- Generator: Adobe Illustrator 27.7.0, SVG Export Plug-In . SVG Version: 6.00 Build 0)  -->
<svg version="1.1" id="Layer_1" xmlns="http://www.w3.org/2000/svg" xmlns:xlink="http://www.w3.org/1999/xlink" x="0px" y="0px"
	 viewBox="0 0 166 71" style="enable-background:new 0 0 166 71;" xml:space="preserve">
<style type="text/css">
	.st0{fill:#FAFAFA;}
</style>
<g>
	<path class="st0" d="M32.4,55c0-7.6-4.1-13.2-11.3-14.5v7c3.4,1.2,5.1,3.9,5.1,7.5c0,4.4-3.7,8.3-9.8,8.3c-6.1,0-9.8-3.8-9.8-8.3
		c0-3.4,1.6-6.4,5-7.5v-7C4.3,41.7,0.4,47.7,0.4,55c0,8.4,6.3,15.1,15.9,15.1C26.5,70.2,32.4,63.5,32.4,55z"/>
	<path class="st0" d="M32.4,21.7c0-8.6-5.8-15.5-16-15.5C6.2,6.2,0.4,13.1,0.4,21.7c0,8.6,5.8,15.5,15.9,15.5
		C26.5,37.2,32.4,30.4,32.4,21.7z M16.3,30.3c-6.7,0-9.9-4-9.9-8.6c0-4.5,3.2-8.6,9.9-8.6c6.7,0,9.9,4.1,9.9,8.6
		C26.2,26.3,23.1,30.3,16.3,30.3z"/>
</g>
</svg>
