<?xml version="1.0" encoding="utf-8"?>
<!-- Generator: Adobe Illustrator 27.7.0, SVG Export Plug-In . SVG Version: 6.00 Build 0)  -->
<svg version="1.1" id="Layer_1" xmlns="http://www.w3.org/2000/svg" xmlns:xlink="http://www.w3.org/1999/xlink" x="0px" y="0px"
	 viewBox="0 0 166 40" style="enable-background:new 0 0 166 40;" xml:space="preserve">
<style type="text/css">
	.st0{fill:#FAFAFA;}
</style>
<g>
	<path class="st0" d="M19.4,39.6c5.7,0,12.4-2.6,12.4-9.6c0-4.4-2.8-8-8.6-9.1l-5.2-1.1c-2.7-0.6-4-1.7-4-3.3c0-2.1,2.1-3.4,4.8-3.4
		c3.2,0,5.2,1.9,5.4,4.4h6.8c-0.2-6.8-6.4-9.9-12-9.9c-5.9,0-11.8,3.4-11.8,9.4c0,4.7,3.4,7.5,8.3,8.6l5.5,1.2c2.4,0.5,4,1.8,4,3.9
		c0,2.6-2.5,3.5-5.2,3.5c-3.7,0-6.4-2-6.5-5.3H6.4C6.8,36.4,13.1,39.6,19.4,39.6z"/>
	<path class="st0" d="M50,39.3c1.6,0,3.1-0.2,4.5-0.6v-5.8c-1.2,0.2-2.3,0.3-3.2,0.3c-2.9,0-5-1.3-5-4.9V14.2h7.4V8.5h-7.4V0.1h-6.9
		v8.3h-5.8v5.7h5.8v14.4C39.5,36.7,44.2,39.3,50,39.3z"/>
	<path class="st0" d="M58.9,8.5v30.2h6.8V24.8c0-6.8,3.6-9.7,8.1-9.7c1.1,0,2.1,0.1,3.2,0.3V8.6c-1-0.2-1.8-0.4-3.4-0.4
		c-3.7,0-6.9,2.3-8.2,5.7V8.5H58.9z"/>
	<path class="st0" d="M92.5,39.6c4.6,0,7.8-2.5,9.2-4.7v3.8h6.6V8.5h-6.9v17.5c0,4.3-3.1,7.5-6.9,7.5c-3.8,0-5.8-2.8-5.8-6.5V8.5
		h-6.9v19.8C81.7,34.7,85.5,39.6,92.5,39.6z"/>
	<path class="st0" d="M129,39.6c7.6,0,13.2-4.1,14.5-11.3h-7c-1.2,3.4-3.9,5.1-7.5,5.1c-4.4,0-8.3-3.7-8.3-9.8
		c0-6.1,3.8-9.8,8.3-9.8c3.4,0,6.4,1.6,7.5,5h7c-1.2-7.3-7.2-11.2-14.5-11.2c-8.4,0-15.1,6.3-15.1,15.9
		C113.8,33.7,120.5,39.6,129,39.6z"/>
	<path class="st0" d="M161.4,39.3c1.6,0,3.1-0.2,4.5-0.6v-5.8c-1.2,0.2-2.3,0.3-3.2,0.3c-2.9,0-5-1.3-5-4.9V14.2h7.4V8.5h-7.4V0.1
		h-6.9v8.3H145v5.7h5.8v14.4C150.8,36.7,155.5,39.3,161.4,39.3z"/>
</g>
</svg>
