<svg width="166" height="40" viewBox="0 0 166 40" fill="none" xmlns="http://www.w3.org/2000/svg">
<path d="M19.3874 39.5514C25.1084 39.5514 31.8116 36.951 31.8116 29.9587C31.8116 25.5091 28.9801 21.9841 23.2592 20.8284L18.0583 19.7304C15.3424 19.0948 14.071 18.0546 14.071 16.4366C14.071 14.2984 16.2092 13.0849 18.8674 13.0849C22.0456 13.0849 24.0682 14.9919 24.2993 17.5345H31.0604C30.8293 10.7157 24.7038 7.59515 19.0407 7.59515C13.1465 7.59515 7.19442 10.9468 7.19442 17.0144C7.19442 21.6952 10.6038 24.5267 15.4579 25.5669L20.9477 26.7227C23.317 27.185 24.935 28.5141 24.935 30.5944C24.935 33.1948 22.3924 34.0616 19.7342 34.0616C16.0358 34.0616 13.3776 32.0391 13.2042 28.7452H6.44318C6.78991 36.3731 13.0887 39.5514 19.3874 39.5514Z" fill="black"/>
<path d="M50.033 39.2624C51.5933 39.2624 53.0957 39.0891 54.5404 38.6846V32.9059C53.3846 33.137 52.2289 33.2526 51.3043 33.2526C48.3572 33.2526 46.3347 31.9235 46.3347 28.3985V14.1829H53.7314V8.46196H46.3347V0.140625H39.458V8.46196H33.6793V14.1829H39.458V28.5718C39.458 36.7198 44.1965 39.2624 50.033 39.2624Z" fill="black"/>
<path d="M58.8956 8.46196V38.6846H65.7145V24.8157C65.7145 17.9968 69.2972 15.1075 73.8624 15.1075C74.9604 15.1075 76.0005 15.223 77.0407 15.3964V8.57753C76.0583 8.34638 75.1915 8.17302 73.6891 8.17302C69.9907 8.17302 66.7546 10.4845 65.4833 13.8362V8.46196H58.8956Z" fill="black"/>
<path d="M92.4788 39.5514C97.1018 39.5514 100.28 37.0665 101.667 34.8706V38.6846H108.255V8.46196H101.378V25.9136C101.378 30.2477 98.2575 33.3682 94.4436 33.3682C90.6874 33.3682 88.6071 30.5366 88.6071 26.896V8.46196H81.7305V28.2829C81.7305 34.6973 85.5444 39.5514 92.4788 39.5514Z" fill="black"/>
<path d="M128.984 39.5514C136.612 39.5514 142.218 35.4485 143.489 28.2251H136.497C135.341 31.5768 132.625 33.3682 128.984 33.3682C124.535 33.3682 120.721 29.6698 120.721 23.5444C120.721 17.4767 124.535 13.7784 128.984 13.7784C132.336 13.7784 135.341 15.3964 136.497 18.8058H143.489C142.275 11.5247 136.265 7.59515 128.984 7.59515C120.547 7.59515 113.844 13.8939 113.844 23.5444C113.844 33.7149 120.547 39.5514 128.984 39.5514Z" fill="black"/>
<path d="M161.355 39.2624C162.915 39.2624 164.418 39.0891 165.862 38.6846V32.9059C164.707 33.137 163.551 33.2526 162.626 33.2526C159.679 33.2526 157.657 31.9235 157.657 28.3985V14.1829H165.053V8.46196H157.657V0.140625H150.78V8.46196H145.001V14.1829H150.78V28.5718C150.78 36.7198 155.518 39.2624 161.355 39.2624Z" fill="black"/>
</svg>
